{
    "accessors" : [
        {
            "bufferView" : 0, 
            "componentType" : 5123, 
            "count" : 20760, 
            "max" : [
                14860
            ], 
            "min" : [
                0
            ], 
            "type" : "SCALAR"
        }, 
        {
            "bufferView" : 1, 
            "componentType" : 5126, 
            "count" : 14861, 
            "max" : [
                5.1769280433654785, 
                8.548535346984863, 
                1.0444450378417969
            ], 
            "min" : [
                -5.15420389175415, 
                -10.267436027526855, 
                -3.252079963684082
            ], 
            "type" : "VEC3"
        }, 
        {
            "bufferView" : 2, 
            "componentType" : 5126, 
            "count" : 14861, 
            "max" : [
                1.0, 
                1.0, 
                0.999969482421875
            ], 
            "min" : [
                -1.0, 
                -0.9998916387557983, 
                -0.999908447265625
            ], 
            "type" : "VEC3"
        }, 
        {
            "bufferView" : 3, 
            "componentType" : 5126, 
            "count" : 14861, 
            "max" : [
                1.0, 
                0.9930616617202759, 
                1.0, 
                1.0
            ], 
            "min" : [
                -1.0, 
                -0.9953336715698242, 
                -1.0, 
                -1.0
            ], 
            "type" : "VEC4"
        }, 
        {
            "bufferView" : 4, 
            "componentType" : 5126, 
            "count" : 14861, 
            "max" : [
                1.0, 
                1.0
            ], 
            "min" : [
                0.0, 
                0.0
            ], 
            "type" : "VEC2"
        }
    ], 
    "asset" : {
        "generator" : "Khronos Blender glTF 2.0 exporter", 
        "version" : "2.0"
    }, 
    "bufferViews" : [
        {
            "buffer" : 0, 
            "byteLength" : 41520, 
            "byteOffset" : 0, 
            "target" : 34963
        }, 
        {
            "buffer" : 0, 
            "byteLength" : 178332, 
            "byteOffset" : 41520, 
            "target" : 34962
        }, 
        {
            "buffer" : 0, 
            "byteLength" : 178332, 
            "byteOffset" : 219852, 
            "target" : 34962
        }, 
        {
            "buffer" : 0, 
            "byteLength" : 237776, 
            "byteOffset" : 398184, 
            "target" : 34962
        }, 
        {
            "buffer" : 0, 
            "byteLength" : 118888, 
            "byteOffset" : 635960, 
            "target" : 34962
        }
    ], 
    "buffers" : [
        {
            "byteLength" : 754848, 
            "uri" : "j7-gn.bin"
        }
    ], 
    "images" : [
        {
            "uri" : "j7-g01.png"
        }
    ], 
    "materials" : [
        {
            "alphaMode" : "BLEND", 
            "name" : "body", 
            "pbrMetallicRoughness" : {
                "baseColorFactor" : [
                    0.6399999856948853, 
                    0.6399999856948853, 
                    0.6399999856948853, 
                    1.0
                ], 
                "baseColorTexture" : {
                    "index" : 0
                }, 
                "metallicFactor" : 0.0
            }
        }
    ], 
    "meshes" : [
        {
            "name" : "body_\u5186\u67f1_None_body_\u5186\u67f1_None_body", 
            "primitives" : [
                {
                    "attributes" : {
                        "NORMAL" : 2, 
                        "POSITION" : 1, 
                        "TANGENT" : 3, 
                        "TEXCOORD_0" : 4
                    }, 
                    "indices" : 0, 
                    "material" : 0
                }
            ]
        }
    ], 
    "nodes" : [
        {
            "mesh" : 0, 
            "name" : "body_\u5186\u67f1_None_body_\u5186\u67f1_None_body", 
            "rotation" : [
                0.7071068286895752, 
                0.0, 
                -0.0, 
                0.7071067094802856
            ]
        }, 
        {
            "name" : "Camera", 
            "rotation" : [
                0.483536034822464, 
                0.33687159419059753, 
                -0.20870360732078552, 
                0.7804827094078064
            ], 
            "translation" : [
                7.481131553649902, 
                5.34366512298584, 
                6.5076398849487305
            ]
        }, 
        {
            "name" : "Lamp", 
            "rotation" : [
                0.16907575726509094, 
                0.7558802962303162, 
                -0.27217137813568115, 
                0.570947527885437
            ], 
            "scale" : [
                1.0, 
                1.0, 
                0.9999999403953552
            ], 
            "translation" : [
                4.076245307922363, 
                5.903861999511719, 
                -1.0054539442062378
            ]
        }
    ], 
    "samplers" : [
        {}
    ], 
    "scene" : 0, 
    "scenes" : [
        {
            "name" : "Scene", 
            "nodes" : [
                0, 
                2, 
                1
            ]
        }
    ], 
    "textures" : [
        {
            "sampler" : 0, 
            "source" : 0
        }
    ]
}
